<?xml version="1.0" encoding="UTF-8" standalone="no"?>
<svg width="200" height="60" xmlns="http://www.w3.org/2000/svg">
  <!-- Background rectangle -->
  <rect width="100%" height="100%" fill="#2c3e50" rx="5" ry="5"/>
  
  <!-- K letter stylized -->
  <path d="M30,10 L40,10 L40,25 L50,10 L62,10 L48,30 L62,50 L50,50 L40,35 L40,50 L30,50 Z" fill="#e74c3c"/>
  
  <!-- B letter stylized -->
  <path d="M70,10 L90,10 C95,10 100,15 100,20 C100,25 95,27 95,27 C95,27 102,30 102,35 C102,45 95,50 90,50 L70,50 Z M80,20 L80,25 L85,25 C86,25 87,24 87,22.5 C87,21 86,20 85,20 Z M80,35 L80,40 L86,40 C87,40 88,39 88,37.5 C88,36 87,35 86,35 Z" fill="#e74c3c"/>
  
  <!-- Solar icon representing Solar R&D -->
  <circle cx="130" cy="30" r="15" fill="#f39c12"/>
  <circle cx="130" cy="30" r="12" fill="#2c3e50"/>
  <circle cx="130" cy="30" r="10" fill="#f39c12"/>
  <circle cx="130" cy="30" r="7" fill="#2c3e50"/>
  <circle cx="130" cy="30" r="5" fill="#f39c12"/>
  
  <!-- Rays from the sun -->
  <line x1="130" y1="10" x2="130" y2="5" stroke="#f39c12" stroke-width="2"/>
  <line x1="130" y1="50" x2="130" y2="55" stroke="#f39c12" stroke-width="2"/>
  <line x1="110" y1="30" x2="105" y2="30" stroke="#f39c12" stroke-width="2"/>
  <line x1="150" y1="30" x2="155" y2="30" stroke="#f39c12" stroke-width="2"/>
  <line x1="145" y1="45" x2="148" y2="48" stroke="#f39c12" stroke-width="2"/>
  <line x1="115" y1="15" x2="112" y2="12" stroke="#f39c12" stroke-width="2"/>
  <line x1="145" y1="15" x2="148" y2="12" stroke="#f39c12" stroke-width="2"/>
  <line x1="115" y1="45" x2="112" y2="48" stroke="#f39c12" stroke-width="2"/>
  
  <!-- Innovative text -->
  <text x="170" y="30" font-family="Arial" font-size="10" fill="#ecf0f1" text-anchor="middle">INNOVATIVE</text>
</svg> 